# xmcd
#
# Track frame offsets:
#	197
#	21552
#	43132
#	71265
#	95992
#	114932
#	134572
#	156272
#	174697
#
# Disc length: 2644 seconds
#
# Revision: 0
# Processed by: cddbd v1.4PL0 Copyright (c) Steve Scherf et al.
# Submitted via: EasyCDDAExtractor 4.6.9.1
#
DISCID=820a5209
DTITLE=Jerry McCain - Love Desperado
DYEAR=1900
DGENRE=Blues
TTITLE0=Blues Tribute
TTITLE1=Burn The Crackhouse Down
TTITLE2=I Need To Do Something
TTITLE3=Love Desperado
TTITLE4=The World's On Fire
TTITLE5=Lovin' School
TTITLE6=I Used To Have It
TTITLE7=Mercy, Mercy Mercy
TTITLE8=Non-stop Lovin'
EXTD=
EXTT0=
EXTT1=
EXTT2=
EXTT3=
EXTT4=
EXTT5=
EXTT6=
EXTT7=
EXTT8=
PLAYORDER=
